<svg viewBox="0 0 343 172" xmlns="http://www.w3.org/2000/svg" fill-rule="evenodd" clip-rule="evenodd" stroke-linecap="round">
  <path id="path5077" d="M.596 110.416l4.883-4.883V64.026L.596 59.143v-46.39C.596 6.056 6.107.545 12.804.545h317.407c6.697 0 12.208 5.511 12.208 12.208v146.495c0 6.697-5.511 12.208-12.208 12.208H12.804c-6.697 0-12.208-5.511-12.208-12.208v-48.832m39.363-43.16a3.38 3.38 0 003.365 3.364 3.38 3.38 0 003.364-3.364 3.38 3.38 0 00-3.364-3.365 3.381 3.381 0 00-3.365 3.365zm0 37.489a3.38 3.38 0 003.365 3.364 3.38 3.38 0 003.364-3.364 3.38 3.38 0 00-3.364-3.364 3.38 3.38 0 00-3.365 3.364zm285.446 30.083v.008c0 2.636 2.169 4.806 4.806 4.806s4.806-2.17 4.806-4.806v-.008c0-2.636-2.169-4.806-4.806-4.806s-4.806 2.17-4.806 4.806zm0-24.415v.007c0 2.637 2.169 4.806 4.806 4.806s4.806-2.169 4.806-4.806v-.007c0-2.637-2.169-4.807-4.806-4.807s-4.806 2.17-4.806 4.807zm0-24.416v.007c0 2.637 2.169 4.806 4.806 4.806s4.806-2.169 4.806-4.806v-.007c0-2.637-2.169-4.807-4.806-4.807s-4.806 2.17-4.806 4.807zm0-24.416v.007c0 2.637 2.169 4.806 4.806 4.806s4.806-2.169 4.806-4.806v-.007c0-2.637-2.169-4.807-4.806-4.807s-4.806 2.17-4.806 4.807zm0-24.416v.007c0 2.637 2.169 4.806 4.806 4.806s4.806-2.169 4.806-4.806v-.007c0-2.637-2.169-4.806-4.806-4.806s-4.806 2.169-4.806 4.806zM7.998 12.753c0 2.636 2.169 4.806 4.806 4.806s4.806-2.17 4.806-4.806c0-2.637-2.169-4.807-4.806-4.807s-4.806 2.17-4.806 4.807zm24.415 0c0 2.636 2.17 4.806 4.807 4.806 2.636 0 4.806-2.17 4.806-4.806 0-2.637-2.17-4.807-4.806-4.807-2.637 0-4.807 2.17-4.807 4.807zm24.416 0c0 2.636 2.17 4.806 4.807 4.806 2.636 0 4.806-2.17 4.806-4.806 0-2.637-2.17-4.807-4.806-4.807-2.637 0-4.807 2.17-4.807 4.807zm24.416-.002v.004c0 2.636 2.17 4.806 4.806 4.806 2.637 0 4.807-2.17 4.807-4.806v-.004c0-2.637-2.17-4.807-4.807-4.807-2.636 0-4.806 2.17-4.806 4.807zm24.416-.002v.007c0 2.637 2.17 4.807 4.806 4.807 2.637 0 4.807-2.17 4.807-4.807v-.007c0-2.637-2.17-4.806-4.807-4.806-2.636 0-4.806 2.169-4.806 4.806zm24.416 0v.007c0 2.637 2.17 4.807 4.806 4.807 2.637 0 4.807-2.17 4.807-4.807v-.007c0-2.637-2.17-4.806-4.807-4.806-2.636 0-4.806 2.169-4.806 4.806zm24.416.004c0 2.636 2.169 4.806 4.806 4.806s4.806-2.17 4.806-4.806c0-2.637-2.169-4.807-4.806-4.807s-4.806 2.17-4.806 4.807zm24.416 0c0 2.636 2.169 4.806 4.806 4.806s4.806-2.17 4.806-4.806c0-2.637-2.169-4.807-4.806-4.807s-4.806 2.17-4.806 4.807zm24.416-.004v.007c0 2.637 2.169 4.807 4.806 4.807s4.806-2.17 4.806-4.807v-.007c0-2.637-2.169-4.806-4.806-4.806s-4.806 2.169-4.806 4.806zm24.416 0v.007c0 2.637 2.169 4.807 4.806 4.807 2.636 0 4.806-2.17 4.806-4.807v-.007c0-2.637-2.17-4.806-4.806-4.806-2.637 0-4.806 2.169-4.806 4.806zm24.416.004c0 2.636 2.17 4.806 4.806 4.806 2.637 0 4.807-2.17 4.807-4.806 0-2.637-2.17-4.807-4.807-4.807-2.636 0-4.806 2.17-4.806 4.807zm24.416-.004v.007c0 2.637 2.17 4.807 4.806 4.807 2.637 0 4.807-2.17 4.807-4.807v-.007c0-2.637-2.17-4.806-4.807-4.806-2.636 0-4.806 2.169-4.806 4.806zm24.416 0v.007c0 2.637 2.17 4.807 4.806 4.807 2.637 0 4.806-2.17 4.806-4.807v-.007c0-2.637-2.169-4.806-4.806-4.806-2.636 0-4.806 2.169-4.806 4.806zm24.416 0v.007c0 2.637 2.169 4.807 4.806 4.807s4.806-2.17 4.806-4.807v-.007c0-2.637-2.169-4.806-4.806-4.806s-4.806 2.169-4.806 4.806zm0 146.495v.008c0 2.636 2.169 4.806 4.806 4.806s4.806-2.17 4.806-4.806v-.008c0-2.636-2.169-4.806-4.806-4.806s-4.806 2.17-4.806 4.806zm-24.416 0v.008c0 2.636 2.17 4.806 4.806 4.806 2.637 0 4.806-2.17 4.806-4.806v-.008c0-2.636-2.169-4.806-4.806-4.806-2.636 0-4.806 2.17-4.806 4.806zm-24.416 0v.008c0 2.636 2.17 4.806 4.806 4.806 2.637 0 4.807-2.17 4.807-4.806v-.008c0-2.636-2.17-4.806-4.807-4.806-2.636 0-4.806 2.17-4.806 4.806zm-24.416.004c0 2.637 2.17 4.806 4.806 4.806 2.637 0 4.807-2.169 4.807-4.806s-2.17-4.806-4.807-4.806c-2.636 0-4.806 2.169-4.806 4.806zm-24.416-.004v.008c0 2.636 2.169 4.806 4.806 4.806 2.636 0 4.806-2.17 4.806-4.806v-.008c0-2.636-2.17-4.806-4.806-4.806-2.637 0-4.806 2.17-4.806 4.806zm-24.416 0v.008c0 2.636 2.169 4.806 4.806 4.806s4.806-2.17 4.806-4.806v-.008c0-2.636-2.169-4.806-4.806-4.806s-4.806 2.17-4.806 4.806zm-24.416.004c0 2.637 2.169 4.806 4.806 4.806s4.806-2.169 4.806-4.806-2.169-4.806-4.806-4.806-4.806 2.169-4.806 4.806zm-24.416 0c0 2.637 2.169 4.806 4.806 4.806s4.806-2.169 4.806-4.806-2.169-4.806-4.806-4.806-4.806 2.169-4.806 4.806zm-24.416-.004v.008c0 2.636 2.17 4.806 4.806 4.806 2.637 0 4.807-2.17 4.807-4.806v-.008c0-2.636-2.17-4.806-4.807-4.806-2.636 0-4.806 2.17-4.806 4.806zm-24.416 0v.008c0 2.636 2.17 4.806 4.806 4.806 2.637 0 4.807-2.17 4.807-4.806v-.008c0-2.636-2.17-4.806-4.807-4.806-2.636 0-4.806 2.17-4.806 4.806zm-24.416.002v.004c0 2.637 2.17 4.806 4.806 4.806 2.637 0 4.807-2.169 4.807-4.806v-.004c0-2.637-2.17-4.806-4.807-4.806-2.636 0-4.806 2.169-4.806 4.806zm-24.416.002c0 2.637 2.17 4.806 4.807 4.806 2.636 0 4.806-2.169 4.806-4.806s-2.17-4.806-4.806-4.806c-2.637 0-4.807 2.169-4.807 4.806zm-24.416 0c0 2.637 2.17 4.806 4.807 4.806 2.636 0 4.806-2.169 4.806-4.806s-2.17-4.806-4.806-4.806c-2.637 0-4.807 2.169-4.807 4.806zm-24.415 0c0 2.637 2.169 4.806 4.806 4.806s4.806-2.169 4.806-4.806-2.169-4.806-4.806-4.806-4.806 2.169-4.806 4.806zM48.13 54.278v.002a3.864 3.864 0 003.845 3.845 3.864 3.864 0 003.845-3.845v-.002a3.864 3.864 0 00-3.845-3.845 3.864 3.864 0 00-3.845 3.845zm0 63.443v.002a3.864 3.864 0 003.845 3.845 3.864 3.864 0 003.845-3.845v-.002a3.863 3.863 0 00-3.845-3.845 3.863 3.863 0 00-3.845 3.845zM20.734 51.394v.003c0 2.373 1.953 4.325 4.326 4.325 2.373 0 4.326-1.952 4.326-4.325v-.003c0-2.373-1.953-4.326-4.326-4.326-2.373 0-4.326 1.953-4.326 4.326zm0 69.21v.003c0 2.373 1.953 4.326 4.326 4.326 2.373 0 4.326-1.953 4.326-4.326v-.003c0-2.373-1.953-4.326-4.326-4.326-2.373 0-4.326 1.953-4.326 4.326z" fill="#00388b" fill-rule="nonzero"/>
  <g transform="rotate(-90 242.544 150.819) scale(3.3911)">
    <g id="g5283">
      <g id="g5281">
        <g id="g5275">
          <path id="path5273" d="M90.683 12.878l-.72-.9h1.44l-.72.9m.663-.828h-1.325 1.325" fill="none" fill-rule="nonzero" stroke="#fff" stroke-width=".43"/>
        </g>
        <g id="g6040" transform="rotate(-180 45.342 6.53)">
          <g id="g6038">
            <g id="g6036">
              <g id="g5279">
                <path id="rect5277" fill="#fff" d="M-1.08-.18h2.16v.36h-2.16z"/>
              </g>
            </g>
          </g>
        </g>
      </g>
    </g>
  </g>
  <g id="g5495" transform="translate(-3.778 .545) scale(3.3911)">
    <g id="g5493" fill="none" fill-rule="nonzero" stroke="#fff" stroke-width=".36">
      <path id="line5483" d="M17.008 18.113v2.268"/>
      <path id="line5485" d="M17.008 30.019v2.268"/>
      <path id="line5487" d="M4.252 14.428H1.701"/>
      <path id="line5489" d="M1.701 14.428v21.544"/>
      <path id="line5491" d="M1.701 35.972h2.551"/>
    </g>
  </g>
  <g id="g7453" transform="translate(-122.697 -191.98) scale(3.3911)">
    <g id="g6579" transform="matrix(1 0 0 -1 104.781 61.561)">
      <g id="g6577">
        <g id="g6575">
          <g id="g8420">
            <path id="path8422" d="M0 0a1.187 1.187 0 100 2.375A1.187 1.187 0 000 0m3.6 2.988H1.984v1.8h-3.968v-1.8h-1.617v-3.6H3.6v3.6z" fill="#fff" fill-rule="nonzero"/>
          </g>
        </g>
      </g>
    </g>
    <g id="g6587" transform="matrix(1 0 0 -1 110.631 65.953)">
      <g id="g6585">
        <g id="g6583">
          <g id="g8424">
            <path id="path8426" d="M0 0a.83.83 0 01.346-.353c.15-.081.352-.122.606-.122.223 0 .403.035.543.104.14.069.247.164.324.287.077.122.129.264.158.427.028.163.042.336.042.517h-.677c0-.181-.011-.328-.032-.439a.824.824 0 00-.09-.259.282.282 0 00-.134-.122.459.459 0 00-.357.014c-.055.03-.1.088-.136.174a1.362 1.362 0 00-.08.364 5.627 5.627 0 00-.027.616c0 .238.007.439.02.604.013.165.034.298.065.399a.47.47 0 00.129.222.322.322 0 00.21.067c.153 0 .259-.055.318-.167.057-.11.086-.289.086-.533h.677c0 .122-.009.253-.026.393a1.069 1.069 0 01-.129.39.798.798 0 01-.313.298c-.139.078-.33.118-.571.118-.254 0-.456-.043-.606-.129A.87.87 0 010 2.51a1.57 1.57 0 01-.154-.552 6.121 6.121 0 01-.036-.703c0-.257.011-.492.036-.705C-.131.337-.079.154 0 0" fill="#fff" fill-rule="nonzero"/>
          </g>
        </g>
      </g>
    </g>
    <g id="g6603" transform="matrix(1 0 0 -1 88.396 59.185)">
      <g id="g6601">
        <g id="g6599">
          <g id="g8432">
            <path id="path8434" d="M0 0h3.969v2.412H0V0z" fill="#fff" fill-rule="nonzero"/>
          </g>
        </g>
      </g>
    </g>
    <g id="g6619" transform="matrix(1 0 0 -1 111.981 59.185)">
      <g id="g6617">
        <g id="g6615">
          <g id="g8440">
            <path id="path8442" d="M-1.984 0h3.967v2.412h-3.967V0z" fill="#fff" fill-rule="nonzero"/>
          </g>
        </g>
      </g>
    </g>
    <g id="g6635" transform="matrix(1 0 0 -1 109.243 66.428)">
      <g id="g6633">
        <g id="g6631">
          <g id="g8448">
            <path id="path8450" d="M0 0c.367 0 .653.081.858.242.205.161.308.419.308.773 0 .104-.01.198-.028.282a.674.674 0 01-.101.233.888.888 0 01-.195.198 1.597 1.597 0 01-.316.175l-.521.226c-.144.059-.238.125-.282.195a.484.484 0 00-.066.261c0 .05.006.099.017.146a.305.305 0 00.06.124.338.338 0 00.12.087c.05.022.114.033.189.033.131 0 .226-.043.281-.129.057-.086.085-.209.085-.369h.649v.094c0 .16-.026.297-.078.411a.742.742 0 01-.216.282.867.867 0 01-.328.16 1.654 1.654 0 01-.416.049c-.324 0-.578-.081-.762-.244-.185-.163-.278-.411-.278-.743 0-.137.018-.259.052-.364a.75.75 0 01.162-.277c.074-.08.165-.15.276-.209.109-.06.239-.115.389-.165.114-.037.208-.075.285-.11a.704.704 0 00.185-.12.402.402 0 00.102-.148.57.57 0 00.03-.195C.461.757.419.652.337.585a.438.438 0 00-.28-.101.555.555 0 00-.219.038.35.35 0 00-.139.103.386.386 0 00-.07.162 1.092 1.092 0 00-.019.214V1.1h-.676V.963c0-.31.082-.548.247-.714C-.655.083-.382 0 0 0" fill="#fff" fill-rule="nonzero"/>
          </g>
        </g>
      </g>
    </g>
    <g id="g6651" transform="matrix(1 0 0 -1 81.039 63.609)">
      <g id="g6649">
        <g id="g6647">
          <g id="g8456">
            <path id="path8458" d="M0 0v-.517h.775v-2.75h.792V.627H.984C.944.407.848.248.696.148.543.049.335 0 .071 0H0z" fill="#fff" fill-rule="nonzero"/>
          </g>
        </g>
      </g>
    </g>
    <g id="g6659" transform="matrix(1 0 0 -1 99.565 56.773)">
      <g id="g6657">
        <g id="g6655">
          <g id="g8460">
            <path id="path8462" d="M0 0h-3.969v-2.412H0V0z" fill="#fff" fill-rule="nonzero"/>
          </g>
        </g>
      </g>
    </g>
    <g id="g6667" transform="matrix(1 0 0 -1 85.165 56.773)">
      <g id="g6665">
        <g id="g6663">
          <g id="g8464">
            <path id="path8466" d="M0 0h-3.968v-2.412H0V0z" fill="#fff" fill-rule="nonzero"/>
          </g>
        </g>
      </g>
    </g>
    <g id="g6683" transform="matrix(1 0 0 -1 114.582 65.821)">
      <g id="g6681">
        <g id="g6679">
          <g id="g8472">
            <path id="path8474" d="M0 0h-1.198v2.801h-.677V-.555H0V0z" fill="#fff" fill-rule="nonzero"/>
          </g>
        </g>
      </g>
    </g>
    <g id="g6715" transform="matrix(1 0 0 -1 106.375 65.326)">
      <g id="g6713">
        <g id="g6711">
          <g id="g8488">
            <path id="path8490" d="M0 0a.853.853 0 01.262.349C.327.501.36.7.36.946c0 .249-.032.454-.096.616a.869.869 0 01-.285.382 1.137 1.137 0 01-.455.195 2.867 2.867 0 01-.588.055c-.155 0-.305-.014-.454-.044a1.21 1.21 0 01-.398-.151.798.798 0 01-.283-.291.912.912 0 01-.108-.465c0-.169.023-.312.069-.429a.622.622 0 01.222-.286V.517l-.885.082v1.436h-.617V.005L-1.4-.138v.71a.449.449 0 00-.261.113c-.064.06-.097.147-.097.261 0 .088.014.161.039.22a.302.302 0 00.132.14c.063.035.148.06.253.074.106.015.24.022.402.022.252 0 .443-.035.569-.107.127-.071.189-.19.189-.355A.31.31 0 00-.236.737a.413.413 0 00-.16-.118.702.702 0 00-.206-.053A2.222 2.222 0 00-.811.555v-.759h.104c.11 0 .228.014.355.041A.905.905 0 010 0" fill="#fff" fill-rule="nonzero"/>
          </g>
        </g>
      </g>
    </g>
    <g id="g6723" transform="matrix(1 0 0 -1 83.972 66.202)">
      <g id="g6721">
        <g id="g6719">
          <g id="g8492">
            <path id="path8494" d="M0 0c-.033.09-.056.212-.069.369a7.528 7.528 0 00-.019.602v.423c0 .25.006.459.019.627.013.169.035.304.066.404a.416.416 0 00.129.215.347.347 0 00.215.063.402.402 0 00.209-.049c.055-.033.099-.095.132-.185s.056-.212.069-.368c.013-.156.019-.357.019-.602v-.424C.77.826.764.617.751.448A1.923 1.923 0 00.685.044.426.426 0 00.556-.17a.341.341 0 00-.215-.064.412.412 0 00-.209.049A.347.347 0 000 0m1.02-.569c.164.11.285.261.366.453.081.193.13.414.149.663.018.249.027.51.027.781 0 .345-.019.637-.058.878a1.564 1.564 0 01-.198.585.824.824 0 01-.374.328 1.504 1.504 0 01-.591.101c-.29 0-.516-.057-.679-.173a1.047 1.047 0 01-.366-.462 2.118 2.118 0 01-.149-.663 10.836 10.836 0 01-.027-.781c0-.345.019-.637.058-.877a1.57 1.57 0 01.198-.586.767.767 0 01.376-.319 1.62 1.62 0 01.589-.093c.289 0 .516.055.679.165" fill="#fff" fill-rule="nonzero"/>
          </g>
        </g>
      </g>
    </g>
    <g id="g6731" transform="matrix(1 0 0 -1 97.378 65.347)">
      <g id="g6729">
        <g id="g6727">
          <g id="g8496">
            <path id="path8498" d="M0 0a6.53 6.53 0 01-.233-.789 7.386 7.386 0 01-.132-.74h.83c.033.275.081.555.142.839a7.419 7.419 0 00.57 1.642c.127.26.27.504.431.731v.605H-.789v-.682H.85A5.99 5.99 0 01.354.809 7.422 7.422 0 010 0" fill="#fff" fill-rule="nonzero"/>
          </g>
        </g>
      </g>
    </g>
    <g id="g6779" transform="matrix(1 0 0 -1 123.517 60.176)">
      <g id="g6777">
        <g id="g6775">
          <g id="g8520">
            <path id="path8522" d="M0 0v3.186h-.477c-.033-.18-.111-.311-.236-.392-.124-.081-.295-.121-.511-.121h-.058V2.25h.635V0H0z" fill="#fff" fill-rule="nonzero"/>
          </g>
        </g>
      </g>
    </g>
    <g id="g6795" transform="matrix(1 0 0 -1 125.47 65.876)">
      <g id="g6793">
        <g id="g6791">
          <g id="g8528">
            <path id="path8530" d="M0 0l.479.967L.964 0h.762L.889 1.442l.78 1.411H.931L.503 1.93l-.433.923h-.568v.003h-2.143v-.555h.734V-.5h.677v2.801h.732v.225l.593-1.084L-.742 0H0z" fill="#fff" fill-rule="nonzero"/>
          </g>
        </g>
      </g>
    </g>
    <g id="g6803" transform="matrix(1 0 0 -1 81.561 99.397)">
      <g id="g6801">
        <g id="g6799">
          <g id="g8532">
            <path id="path8534" d="M0 0l.379 1.766h.012L.77 0H0zm4.298-.863H2.829c.019.073.061.16.127.261s.157.205.275.311l.44.407c.11.099.204.195.28.288.077.094.14.191.187.289.048.099.083.203.105.311.022.108.033.225.033.35 0 .34-.096.602-.286.786-.191.183-.484.275-.88.275-.418 0-.724-.098-.919-.292-.194-.194-.291-.473-.291-.836v-.148h.759c0 .102.005.2.013.292.01.09.03.172.061.241.031.07.075.125.132.165.057.041.135.06.234.06.256 0 .385-.161.385-.483 0-.1-.005-.187-.014-.265a.727.727 0 00-.058-.213.896.896 0 00-.123-.199 1.916 1.916 0 00-.212-.215L2.758.226a4.03 4.03 0 01-.377-.394 2.37 2.37 0 01-.27-.398 1.814 1.814 0 01-.207-.875L.875 2.447h-.979l-1.04-3.926h.825l.181.831H.907l.182-.831h3.209v.616z" fill="#fff" fill-rule="nonzero"/>
          </g>
        </g>
      </g>
    </g>
    <g id="g6811" transform="matrix(1 0 0 -1 98.528 99.451)">
      <g id="g6809">
        <g id="g6807">
          <g id="g8536">
            <path id="path8538" d="M0 0l.759 1.479H.77V0H0zm1.496-1.425v.809h.374V0h-.374v2.47H.677L-.616.033v-.649H.77v-.809h.726z" fill="#fff" fill-rule="nonzero"/>
          </g>
        </g>
      </g>
    </g>
    <g id="g6827" transform="matrix(1 0 0 -1 135.875 103.062)">
      <g id="g6825">
        <g id="g6823">
          <g id="g8544">
            <path id="path8546" d="M0 0l-2.806-2.807 1.234-1.232c.01.002.021.007.033.009a3.7 3.7 0 01.576.178c.061.025.119.053.178.081.139.064.271.136.4.217.053.033.108.066.158.102.17.119.332.248.479.394.146.147.275.309.394.479.037.051.069.104.102.158.08.128.153.262.217.4.027.059.056.118.08.178.074.186.137.378.18.577l.008.033L0 0z" fill="#fff" fill-rule="nonzero"/>
          </g>
        </g>
      </g>
    </g>
    <g id="g6843" transform="matrix(1 0 0 -1 78.098 100.876)">
      <g id="g6841">
        <g id="g6839">
          <g id="g8552">
            <path id="path8554" d="M0 0v3.895h-.583c-.041-.221-.137-.38-.289-.479-.152-.1-.36-.148-.624-.148h-.071V2.75h.775V0H0z" fill="#fff" fill-rule="nonzero"/>
          </g>
        </g>
      </g>
    </g>
    <g id="g6851" transform="matrix(1 0 0 -1 129.374 64.51)">
      <g id="g6849">
        <g id="g6847">
          <g id="g8556">
            <path id="path8558" d="M0 0l-.199-.199-.684.684.226.226c.221.222.441.223.661.003C.133.586.192.463.185.347.178.231.115.115 0 0m3.889 1.217l-1.791.608-.621 1.725-.523-.522.465-1.07-1.073.461-.529-.528 1.718-.627.548-1.613c-.02.009-.037-.001-.059.014a4.457 4.457 0 00-.309.269c-.067.062-.126.118-.182.168a3.333 3.333 0 01-.154.134c-.146.12-.275.182-.391.187C.872.427.746.378.609.276L.603.283a.635.635 0 01.104.494 1.014 1.014 0 01-.295.486c-.205.206-.414.304-.626.295-.212-.011-.417-.115-.616-.314l-.885-.885L.658-2.014l.479.479L.133-.531l.256.256c.1.1.197.143.293.132a.53.53 0 00.289-.149l.468-.442c.049-.044.098-.085.149-.121a.356.356 0 01.16-.069l.397.396.123.123.401.402-.466 1.143L3.351.678l.538.539z" fill="#fff" fill-rule="nonzero"/>
          </g>
        </g>
      </g>
    </g>
    <g id="g6859" transform="matrix(1 0 0 -1 37.779 65.978)">
      <g id="g6857">
        <g id="g6855">
          <g id="g8560">
            <path id="path8562" d="M0 0v1.011h.292A.84.84 0 00.499.987.389.389 0 00.661.905.414.414 0 00.769.75a.647.647 0 00.04-.242C.809.313.758.18.658.108A.662.662 0 00.263 0H0zm0 2.359h.245c.169 0 .293-.032.371-.098.078-.066.117-.179.117-.339 0-.159-.043-.273-.129-.34C.518 1.514.381 1.48.193 1.48H0v.879zM.961-.418a.886.886 0 01.325.214.767.767 0 01.176.312c.034.12.052.245.052.376 0 .226-.056.406-.165.541a.668.668 0 01-.447.24v.009a.63.63 0 01.381.266.83.83 0 01.127.467c0 .16-.023.295-.07.404a.648.648 0 01-.198.263.771.771 0 01-.303.141 1.593 1.593 0 01-.383.043H-.677V-.498H.465c.198 0 .363.026.496.08" fill="#fff" fill-rule="nonzero"/>
          </g>
        </g>
      </g>
    </g>
    <g id="g6931" transform="matrix(1 0 0 -1 120.898 63.603)">
      <g id="g6929">
        <g id="g6927">
          <g id="g8596">
            <path id="path8598" d="M0 0h.01l.324-1.509h-.658L0 0zm-.441-2.063h.892l.155-.71h.706L.423.583h-.836l-.889-3.356h.705l.156.71z" fill="#fff" fill-rule="nonzero"/>
          </g>
        </g>
      </g>
    </g>
    <g id="g6939" transform="matrix(1 0 0 -1 128.365 56.773)">
      <g id="g6937">
        <g id="g6935">
          <g id="g8600">
            <path id="path8602" d="M0 0h-3.969v-2.412H0V0z" fill="#fff" fill-rule="nonzero"/>
          </g>
        </g>
      </g>
    </g>
    <path fill="#fff" fill-rule="nonzero" d="M98.459 30.416h2.341v3.968h-2.341z" transform="matrix(1 0 0 -1 36.38 107.174)" id="path8604"/>
    <g id="g6948" transform="matrix(1 0 0 -1 129.597 58.484)">
      <g id="g6946">
        <g id="g6944">
          <g id="g8606">
            <path id="path8608" d="M0 0c0 .204.006.375.016.513S.045.761.07.844a.35.35 0 00.106.176.283.283 0 00.176.051.324.324 0 00.17-.04A.281.281 0 00.63.88 1.21 1.21 0 00.687.578C.697.451.702.287.702.085v-.346c0-.204-.005-.375-.015-.513a1.612 1.612 0 00-.054-.33.343.343 0 00-.107-.176.281.281 0 00-.174-.052.335.335 0 00-.171.04c-.046.028-.081.078-.109.151a1.171 1.171 0 00-.056.302C.006-.711 0-.547 0-.346V0zm-.13-1.665c.129-.051.289-.076.482-.076.236 0 .421.045.555.135a.804.804 0 01.299.371c.066.157.106.338.122.542.015.204.023.417.023.639 0 .282-.016.521-.048.718a1.295 1.295 0 01-.162.479.672.672 0 01-.306.268 1.228 1.228 0 01-.483.083c-.238 0-.423-.047-.556-.141a.867.867 0 01-.3-.379A1.748 1.748 0 01-.625.432a8.204 8.204 0 01-.022-.639c0-.282.015-.521.046-.718.032-.196.086-.356.163-.479a.622.622 0 01.308-.261" fill="#fff" fill-rule="nonzero"/>
          </g>
        </g>
      </g>
    </g>
    <g id="g6956" transform="matrix(1 0 0 -1 115.315 65.328)">
      <g id="g6954">
        <g id="g6952">
          <g id="g8610">
            <path id="path8612" d="M0 0v-.137c0-.31.082-.548.247-.714.164-.166.438-.249.819-.249.368 0 .654.08.859.242.205.161.307.419.307.773 0 .104-.009.198-.028.282a.672.672 0 01-.1.233.89.89 0 01-.196.197c-.082.061-.186.12-.315.176l-.522.226c-.143.059-.238.125-.282.195a.481.481 0 00-.065.261c0 .05.005.098.016.146a.295.295 0 00.181.211.47.47 0 00.188.033c.131 0 .226-.043.282-.129a.676.676 0 00.085-.369h.648v.094c0 .16-.025.297-.077.411a.745.745 0 01-.217.282.86.86 0 01-.328.16 1.654 1.654 0 01-.416.049c-.323 0-.577-.081-.762-.244-.184-.163-.277-.411-.277-.743 0-.137.017-.259.052-.364A.737.737 0 01.261.745C.334.665.426.595.536.536c.11-.06.239-.115.39-.165.113-.038.208-.075.284-.11a.711.711 0 00.186-.12.4.4 0 00.101-.148.548.548 0 00.03-.195c0-.141-.042-.246-.124-.313a.43.43 0 00-.28-.101.54.54 0 00-.219.038.353.353 0 00-.138.103.375.375 0 00-.071.162 1.17 1.17 0 00-.018.214V0H0z" fill="#fff" fill-rule="nonzero"/>
          </g>
        </g>
      </g>
    </g>
    <g id="g6964" transform="matrix(1 0 0 -1 119.181 59.185)">
      <g id="g6962">
        <g id="g6960">
          <g id="g8614">
            <path id="path8616" d="M-1.985 0h3.968v2.412h-3.968V0z" fill="#fff" fill-rule="nonzero"/>
          </g>
        </g>
      </g>
    </g>
    <g id="g6972" transform="matrix(1 0 0 -1 118.266 65.878)">
      <g id="g6970">
        <g id="g6968">
          <g id="g8618">
            <path id="path8620" d="M0 0v2.359h.287a.575.575 0 00.308-.072.453.453 0 00.174-.217c.039-.095.065-.215.078-.359.011-.144.018-.312.018-.503C.865.979.858.788.844.635A1.191 1.191 0 00.76.263.425.425 0 00.588.061.59.59 0 00.301 0H0zm.95-.395a.82.82 0 01.353.315c.087.141.149.321.185.538.035.218.054.474.054.769 0 .247-.014.471-.042.672a1.479 1.479 0 01-.162.515.822.822 0 01-.337.329c-.144.076-.333.115-.568.115h-1.11V-.498H.391c.225 0 .412.035.559.103" fill="#fff" fill-rule="nonzero"/>
          </g>
        </g>
      </g>
    </g>
    <g id="g6988" transform="matrix(1 0 0 -1 96.49 97.63)">
      <g id="g6986">
        <g id="g6984">
          <g id="g8626">
            <path id="path8628" d="M0 0h.012l.379-1.766h-.77L0 0zm-.517-2.414H.528l.182-.831h.825L.495.682h-.978l-1.04-3.927h.825l.181.831z" fill="#fff" fill-rule="nonzero"/>
          </g>
        </g>
      </g>
    </g>
    <g id="g6996" transform="matrix(1 0 0 -1 106.687 100.84)">
      <g id="g6994">
        <g id="g6992">
          <g id="g8630">
            <path id="path8632" d="M0 0a.815.815 0 01.363.286c.089.126.151.277.186.453.034.177.052.372.052.589 0 .154-.014.306-.042.454a1.254 1.254 0 01-.144.399.788.788 0 01-.276.283.845.845 0 01-.443.107c-.16 0-.296-.023-.407-.069a.594.594 0 01-.271-.223h-.011l.078.886H.449v.616h-1.928l-.135-2.117h.674a.47.47 0 00.106.261c.058.064.141.096.249.096a.5.5 0 00.209-.039.28.28 0 00.133-.131.769.769 0 00.07-.253c.014-.107.022-.241.022-.402 0-.253-.035-.443-.103-.569C-.321.5-.434.437-.591.437A.286.286 0 00-.784.5a.41.41 0 00-.112.16.699.699 0 00-.05.206c-.007.073-.01.143-.01.209h-.722V.971c0-.111.014-.229.039-.355a.933.933 0 01.155-.352.789.789 0 01.332-.261c.144-.066.334-.1.567-.1.236 0 .432.033.585.097" fill="#fff" fill-rule="nonzero"/>
          </g>
        </g>
      </g>
    </g>
    <g id="g7004" transform="matrix(1 0 0 -1 103.642 97.63)">
      <g id="g7002">
        <g id="g7000">
          <g id="g8634">
            <path id="path8636" d="M0 0h.011l.36-1.766H-.36L0 0zm-.491-2.414h.993l.172-.831h.784L.471.682H-.46l-.987-3.927h.783l.173.831z" fill="#fff" fill-rule="nonzero"/>
          </g>
        </g>
      </g>
    </g>
    <g id="g7012" transform="matrix(1 0 0 -1 92.464 100.832)">
      <g id="g7010">
        <g id="g7008">
          <g id="g8638">
            <path id="path8640" d="M0 0c.167.07.298.161.394.275a.932.932 0 01.192.38c.033.139.049.275.049.407 0 .246-.052.45-.156.613-.105.163-.284.264-.537.305v.011c.187.04.333.135.438.283.104.149.156.34.156.576 0 .344-.098.597-.294.758-.196.162-.472.243-.828.243-.374 0-.658-.095-.852-.284-.195-.189-.291-.477-.291-.866h.725c0 .091.005.176.014.253.01.077.028.144.057.2a.33.33 0 00.124.132.405.405 0 00.206.047c.129 0 .224-.038.287-.115.062-.077.093-.209.093-.396 0-.081-.008-.158-.024-.231a.668.668 0 00-.077-.195.414.414 0 00-.138-.138.408.408 0 00-.212-.052h-.259v-.518h.265a.557.557 0 00.264-.054.401.401 0 00.154-.149.593.593 0 00.074-.212A1.876 1.876 0 00-.171.781.557.557 0 00-.231.58.364.364 0 00-.363.445.465.465 0 00-.591.396c-.173 0-.287.06-.344.179-.057.119-.087.292-.09.52h-.76v-.017c0-.378.094-.669.281-.874.187-.206.469-.308.847-.308.271 0 .49.035.657.104" fill="#fff" fill-rule="nonzero"/>
          </g>
        </g>
      </g>
    </g>
    <g id="g7020" transform="matrix(1 0 0 -1 89.245 97.63)">
      <g id="g7018">
        <g id="g7016">
          <g id="g8642">
            <path id="path8644" d="M0 0h.011l.38-1.766H-.38L0 0zm-.518-2.414H.527l.182-.831h.825L.495.682h-.979l-1.039-3.927h.825l.18.831z" fill="#fff" fill-rule="nonzero"/>
          </g>
        </g>
      </g>
    </g>
    <g id="g7028" transform="matrix(1 0 0 -1 113.702 99.879)">
      <g id="g7026">
        <g id="g7024">
          <g id="g8646">
            <path id="path8648" d="M0 0l.236.38.657-1.377h.723L.652.921l.867 1.438H.821L.009 1.015H0v1.344h-.643V-.997H0V0z" fill="#fff" fill-rule="nonzero"/>
          </g>
        </g>
      </g>
    </g>
    <g id="g7036" transform="matrix(1 0 0 -1 112.229 100.032)">
      <g id="g7034">
        <g id="g7032">
          <g id="g8650">
            <path id="path8652" d="M0 0a.86.86 0 00-.085-.259.28.28 0 00-.128-.122.412.412 0 00-.339.015c-.052.029-.095.088-.13.174a1.421 1.421 0 00-.075.364 8.554 8.554 0 00-.007 1.22c.012.164.033.297.063.399.029.102.07.175.122.221a.296.296 0 00.199.068c.146 0 .246-.056.302-.167.055-.111.082-.289.082-.533h.643c0 .122-.008.253-.025.392a1.077 1.077 0 01-.122.39.781.781 0 01-.297.299c-.133.078-.313.117-.543.117-.241 0-.432-.043-.576-.129a.853.853 0 01-.328-.36 1.626 1.626 0 01-.148-.552 6.929 6.929 0 01-.033-.703c0-.257.011-.491.033-.705.023-.213.072-.396.148-.55a.81.81 0 01.328-.352c.144-.081.335-.123.576-.123.211 0 .383.036.516.104a.756.756 0 01.308.287c.073.122.122.265.15.428.026.163.04.335.04.516H.031C.031.258.021.111 0 0" fill="#fff" fill-rule="nonzero"/>
          </g>
        </g>
      </g>
    </g>
    <g id="g7044" transform="matrix(1 0 0 -1 82.063 89.54)">
      <g id="g7042">
        <g id="g7040">
          <g id="g8654">
            <path id="path8656" d="M0 0c.35-.055.614-.214.592-.356C.569-.498.269-.568-.081-.513c-.35.055-.614.214-.592.356C-.651-.015-.35.055 0 0m.767 1.285c.141.023.301-.242.356-.592C1.18.344 1.109.042.968.02.826-.002.666.263.61.612c-.055.349.015.651.157.673m.008-2.804c-.16-.315-.394-.518-.522-.453s-.102.373.059.689c.161.315.394.518.522.453s.102-.373-.059-.689m.584.773c.101.101.386-.019.637-.269.25-.25.371-.535.27-.636-.102-.102-.387.019-.637.269-.251.249-.371.534-.27.636M1.894.302c.315.16.624.187.689.06C2.647.234 2.445 0 2.13-.161c-.315-.161-.623-.188-.689-.06-.064.128.138.362.453.523m-2.66-1.605c.102.032.208.072.317.116a4.124 4.124 0 01-.28-.188c-.635-.467-.59-1.388-.59-1.388l-.006-1.493c0-.255.019-.368.186-.452.168-.086.271-.036.477.115l1.203.885s.771.506.773 1.294a3.91 3.91 0 01-.012.336c.028-.113.059-.222.093-.323.248-.748 1.137-.99 1.137-.99l1.418-.467c.243-.08.356-.096.488.038.133.133.118.246.038.488l-.47 1.418s-.243.889-.992 1.136a4.5 4.5 0 01-.323.091c.117-.008.23-.012.335-.012.788.005 1.294.776 1.294.776l.882 1.205c.151.206.2.308.115.476-.086.168-.198.187-.453.186l-1.493-.008s-.922.043-1.388-.593a4.123 4.123 0 01-.186-.28c.044.109.083.216.115.316.239.752-.339 1.47-.339 1.47L.7 4.061c-.149.207-.231.286-.417.256-.185-.029-.239-.13-.316-.373l-.454-1.423s-.325-.862.135-1.502C-.29.933-.22.844-.144.754a4.129 4.129 0 01-.265.208c-.641.459-1.502.132-1.502.132L-3.333.638C-3.576.56-3.677.506-3.706.32c-.029-.185.05-.267.257-.416l1.213-.871s.719-.576 1.47-.336" fill="#fff" fill-rule="nonzero"/>
          </g>
        </g>
      </g>
    </g>
    <g id="g7052" transform="matrix(1 0 0 -1 45.476 98.151)">
      <g id="g7050">
        <g id="g7048">
          <g id="g8658">
            <path id="path8660" d="M0 0v-.709l3.284.755v.85L0 1.651V.966L2.429.478V.464L0 0z" fill="#fff" fill-rule="nonzero"/>
          </g>
        </g>
      </g>
    </g>
    <g id="g7060" transform="matrix(1 0 0 -1 36.656 94.179)">
      <g id="g7058">
        <g id="g7056">
          <g id="g8662">
            <path id="path8664" d="M0 0v-2.097h.542v.717h2.742v.663H.542V0H0z" fill="#fff" fill-rule="nonzero"/>
          </g>
        </g>
      </g>
    </g>
    <g id="g7068" transform="matrix(1 0 0 -1 40.134 65.212)">
      <g id="g7066">
        <g id="g7064">
          <g id="g8666">
            <path id="path8668" d="M0 0l.324 1.509h.01L.658 0H0zm.748 2.092h-.837l-.889-3.356h.706l.154.709h.893l.156-.709h.705L.748 2.092z" fill="#fff" fill-rule="nonzero"/>
          </g>
        </g>
      </g>
    </g>
    <g id="g7076" transform="matrix(1 0 0 -1 75.257 97.63)">
      <g id="g7074">
        <g id="g7072">
          <g id="g8670">
            <path id="path8672" d="M0 0h.011l.38-1.766h-.77L0 0zm-.517-2.414H.528l.181-.831h.826L.495.682h-.979l-1.039-3.927h.825l.181.831z" fill="#fff" fill-rule="nonzero"/>
          </g>
        </g>
      </g>
    </g>
    <g id="g7084" transform="matrix(1 0 0 -1 47.392 63.553)">
      <g id="g7082">
        <g id="g7080">
          <g id="g8674">
            <path id="path8676" d="M0 0a.286.286 0 00.176-.054.436.436 0 00.12-.136.616.616 0 00.068-.181.93.93 0 00.022-.193h.648c0 .341-.081.604-.244.787C.627.407.36.498-.009.498-.226.498-.406.462-.55.39A.84.84 0 01-.897.068a1.473 1.473 0 01-.186-.533 4.51 4.51 0 01-.054-.743c0-.291.012-.547.037-.768.025-.221.075-.407.148-.557a.74.74 0 01.306-.334c.13-.072.298-.108.505-.108.16 0 .297.027.412.082a.716.716 0 01.293.28h.01v-.31h.498v1.809H-.023v-.498h.446v-.343a.612.612 0 00-.042-.237.532.532 0 00-.106-.167.446.446 0 00-.136-.099.332.332 0 00-.134-.033.321.321 0 00-.237.092.603.603 0 00-.142.263 2.213 2.213 0 00-.068.416 7.484 7.484 0 00-.018.545c0 .42.036.721.107.903C-.28-.091-.163 0 0 0" fill="#fff" fill-rule="nonzero"/>
          </g>
        </g>
      </g>
    </g>
    <g id="g7092" transform="matrix(1 0 0 -1 38.09 99.984)">
      <g id="g7090">
        <g id="g7088">
          <g id="g8678">
            <path id="path8680" d="M0 0h-.948v.312c0 .307.152.46.456.46.178 0 .304-.043.379-.128C-.038.558 0 .436 0 .275V0zm1.849 0H.46v.354c0 .138.037.236.11.294a.514.514 0 00.304.097l.63.019c.064.003.127.008.186.018a.34.34 0 01.159.065v.716h-.028c-.033-.061-.096-.1-.188-.119a4.52 4.52 0 00-.4-.027l-.242-.01a5.057 5.057 0 01-.2-.013c-.184-.019-.317-.066-.4-.143C.308 1.175.254 1.053.23.888H.221a.623.623 0 01-.269.414c-.14.089-.32.133-.541.133-.285 0-.497-.077-.637-.23-.14-.153-.209-.368-.209-.644V-.662h3.284V0z" fill="#fff" fill-rule="nonzero"/>
          </g>
        </g>
      </g>
    </g>
    <g id="g7100" transform="matrix(1 0 0 -1 41.234 63.675)">
      <g id="g7098">
        <g id="g7096">
          <g id="g8682">
            <path id="path8684" d="M0 0h.733v-2.801h.677V0h.733v.555H0V0z" fill="#fff" fill-rule="nonzero"/>
          </g>
        </g>
      </g>
    </g>
    <g id="g7108" transform="matrix(1 0 0 -1 37.557 98.388)">
      <g id="g7106">
        <g id="g7104">
          <g id="g8686">
            <path id="path8688" d="M0 0c.135 0 .254.017.356.051a.721.721 0 01.272.158c.078.072.146.162.205.27.058.106.112.234.161.381.036.111.072.203.108.279a.707.707 0 00.117.181.388.388 0 00.145.099c.053.019.117.03.191.03.138 0 .24-.041.306-.122a.425.425 0 00.098-.274.553.553 0 00-.036-.214.345.345 0 00-.101-.136.36.36 0 00-.159-.068 1.04 1.04 0 00-.209-.019h-.097v-.662h.133c.304 0 .537.08.699.241.163.161.245.429.245.803 0 .358-.08.639-.238.84-.157.2-.409.301-.756.301-.102 0-.193-.009-.276-.028a.644.644 0 01-.228-.098.855.855 0 01-.193-.192 1.542 1.542 0 01-.173-.308l-.22-.51C.292.861.228.77.159.727A.477.477 0 00-.097.662a.558.558 0 00-.142.017.273.273 0 00-.122.059.322.322 0 00-.085.117.452.452 0 00-.033.184c0 .129.043.221.127.276a.66.66 0 00.361.083v.635h-.092a.961.961 0 01-.402-.076.73.73 0 01-.276-.212.844.844 0 01-.156-.321 1.593 1.593 0 01-.049-.407c0-.317.08-.565.239-.746C-.567.09-.325 0 0 0" fill="#fff" fill-rule="nonzero"/>
          </g>
        </g>
      </g>
    </g>
    <g id="g7116" transform="matrix(1 0 0 -1 110.727 99.912)">
      <g id="g7114">
        <g id="g7112">
          <g id="g8690">
            <path id="path8692" d="M0 0c0 .104-.009.197-.026.282a.692.692 0 01-.096.233.877.877 0 01-.186.197c-.077.061-.177.12-.298.176l-.497.226c-.136.059-.226.124-.267.195a.498.498 0 00-.063.26.65.65 0 00.016.147.29.29 0 00.172.211.42.42 0 00.179.033c.125 0 .213-.043.267-.13.054-.086.08-.209.08-.368h.616v.094c0 .16-.024.297-.073.411a.759.759 0 01-.518.441c-.12.033-.252.05-.395.05-.307 0-.548-.082-.723-.244-.176-.163-.264-.411-.264-.743 0-.138.016-.259.05-.365a.767.767 0 01.153-.277c.07-.079.157-.149.262-.209a2.23 2.23 0 01.37-.164c.107-.038.197-.075.27-.11a.667.667 0 00.177-.12.406.406 0 00.096-.149.591.591 0 00.029-.194c0-.142-.04-.246-.119-.313a.393.393 0 00-.266-.101.485.485 0 00-.207.038.322.322 0 00-.132.102.389.389 0 00-.067.162 1.179 1.179 0 00-.018.214v.1h-.642v-.137c0-.31.078-.549.234-.715.157-.166.416-.249.779-.249.348 0 .62.081.815.243C-.098-.612 0-.354 0 0" fill="#fff" fill-rule="nonzero"/>
          </g>
        </g>
      </g>
    </g>
    <path fill="#fff" fill-rule="nonzero" d="M52.015 0h3.969v2.412h-3.969z" transform="matrix(1 0 0 -1 36.38 107.174)" id="path8694"/>
    <path fill="#fff" fill-rule="nonzero" d="M59.215 0h3.969v2.412h-3.969z" transform="matrix(1 0 0 -1 36.38 107.174)" id="path8696"/>
    <path fill="#fff" fill-rule="nonzero" d="M44.816 0h3.969v2.412h-3.969z" transform="matrix(1 0 0 -1 36.38 107.174)" id="path8698"/>
    <path fill="#fff" fill-rule="nonzero" d="M66.416 0h3.969v2.412h-3.969z" transform="matrix(1 0 0 -1 36.38 107.174)" id="path8700"/>
    <path fill="#fff" fill-rule="nonzero" d="M37.616 0h3.968v2.412h-3.968z" transform="matrix(1 0 0 -1 36.38 107.174)" id="path8702"/>
    <path fill="#fff" fill-rule="nonzero" d="M73.616 0h3.969v2.412h-3.969z" transform="matrix(1 0 0 -1 36.38 107.174)" id="path8704"/>
    <path fill="#fff" fill-rule="nonzero" d="M88.015 0h3.969v2.412h-3.969z" transform="matrix(1 0 0 -1 36.38 107.174)" id="path8706"/>
    <path fill="#fff" fill-rule="nonzero" d="M80.816 0h3.968v2.412h-3.968z" transform="matrix(1 0 0 -1 36.38 107.174)" id="path8708"/>
    <g id="g7132" transform="matrix(1 0 0 -1 120.406 100.159)">
      <g id="g7130">
        <g id="g7128">
          <g id="g8710">
            <path id="path8712" d="M0 0a1.605 1.605 0 00-.066.386 8.418 8.418 0 00-.017.575c0 .226.006.417.017.574.011.156.033.285.066.385.032.101.08.173.141.219a.397.397 0 00.242.068c.1 0 .18-.023.242-.068a.43.43 0 00.141-.219c.033-.1.054-.229.066-.385.011-.157.016-.348.016-.574C.848.735.843.544.832.386A1.656 1.656 0 00.766 0a.426.426 0 00-.141-.216.394.394 0 00-.242-.068.39.39 0 00-.242.068A.42.42 0 000 0m.989-.646a.828.828 0 01.346.352c.079.154.131.337.154.55.024.214.035.448.035.705 0 .254-.011.488-.035.703a1.559 1.559 0 01-.154.552.87.87 0 01-.346.36c-.15.086-.352.129-.606.129s-.456-.043-.607-.129a.873.873 0 01-.345-.36 1.58 1.58 0 01-.155-.552A6.356 6.356 0 01-.76.961c0-.257.012-.491.036-.705.024-.213.076-.396.155-.55a.831.831 0 01.345-.352c.151-.082.353-.123.607-.123s.456.041.606.123" fill="#fff" fill-rule="nonzero"/>
          </g>
        </g>
      </g>
    </g>
    <g id="g7140" transform="matrix(1 0 0 -1 124.458 98.196)">
      <g id="g7138">
        <g id="g7136">
          <g id="g8714">
            <path id="path8716" d="M0 0h.01l.596-2.68h.527L1.729 0h.01v-2.68h.62V.677H1.358L.875-1.692h-.01L.386.677H-.62V-2.68H0V0z" fill="#fff" fill-rule="nonzero"/>
          </g>
        </g>
      </g>
    </g>
    <g id="g7148" transform="matrix(1 0 0 -1 118.22 100.876)">
      <g id="g7146">
        <g id="g7144">
          <g id="g8718">
            <path id="path8720" d="M0 0l.597 2.68h.009V0h.621v3.356H.226L-.258.987h-.01l-.479 2.369h-1.006V0h.62v2.68h.01L-.526 0H0z" fill="#fff" fill-rule="nonzero"/>
          </g>
        </g>
      </g>
    </g>
    <path fill="#fff" fill-rule="nonzero" d="M90.722 6.298h.677v3.356h-.677z" transform="matrix(1 0 0 -1 36.38 107.174)" id="path8722"/>
    <g id="g7157" transform="matrix(1 0 0 -1 136.84 58.865)">
      <g id="g7155">
        <g id="g7153">
          <g id="g8724">
            <path id="path8726" d="M0 0a3.506 3.506 0 01-.217.4C-.25.454-.282.508-.318.559c-.119.17-.248.332-.395.478v.001a3.627 3.627 0 01-.478.394c-.051.036-.106.068-.159.101a3.356 3.356 0 01-.4.217c-.059.028-.117.057-.178.081a3.599 3.599 0 01-.576.179c-.012.002-.022.007-.033.009L-3.771.786l2.806-2.807L.269-.787C.267-.776.262-.766.26-.755a3.613 3.613 0 01-.18.577C.057-.117.027-.059 0 0" fill="#fff" fill-rule="nonzero"/>
          </g>
        </g>
      </g>
    </g>
    <path fill="#fff" fill-rule="nonzero" d="M98.46 37.616h2.341v3.969H98.46z" transform="matrix(1 0 0 -1 36.38 107.174)" id="path8732"/>
    <g id="g7174" transform="matrix(1 0 0 -1 129.013 100.446)">
      <g id="g7172">
        <g id="g7170">
          <g id="g8734">
            <path id="path8736" d="M0 0l.537.537a2.526 2.526 0 00-.195.217.745.745 0 00-.129.213.403.403 0 00-.024.21.404.404 0 00.123.208c.181.181.385.158.614-.071.07-.07.13-.134.178-.195a.793.793 0 00.163-.421c.008-.084.009-.184.002-.301l-.016-.435a4.036 4.036 0 01.012-.545c.014-.169.046-.326.09-.473.046-.146.11-.284.192-.416s.183-.257.305-.379L3.547-.154l-.436.435L2.073-.758a.91.91 0 00-.094.275 1.56 1.56 0 00-.026.413l.024.599c.007.149.005.282-.006.403a1.4 1.4 0 01-.218.63 1.82 1.82 0 01-.224.27c-.242.24-.494.359-.758.355-.265-.006-.537-.148-.818-.429-.295-.295-.442-.58-.443-.856.001-.274.129-.541.386-.797L0 0z" fill="#fff" fill-rule="nonzero"/>
          </g>
        </g>
      </g>
    </g>
    <g id="g7182" transform="matrix(1 0 0 -1 73.433 101.01)">
      <g id="g7180">
        <g id="g7178">
          <g id="g8738">
            <path id="path8740" d="M0 0a.467.467 0 01-.656-.082 4.086 4.086 0 01-.396-.62 4.172 4.172 0 01-.397.62.468.468 0 01-.738-.574 3.087 3.087 0 00.667-1.907c0-.687-.23-1.347-.667-1.909a.467.467 0 11.738-.574c.154.197.283.405.397.62.113-.215.242-.423.396-.62a.468.468 0 11.738.574 3.094 3.094 0 00-.666 1.909c0 .686.23 1.345.666 1.907A.467.467 0 010 0" fill="#fff" fill-rule="nonzero"/>
          </g>
        </g>
      </g>
    </g>
    <g id="g7198" transform="matrix(1 0 0 -1 78.528 106.138)">
      <g id="g7196">
        <g id="g7194">
          <g id="g8746">
            <path id="path8748" d="M0 0a.47.47 0 01.656.082 4.02 4.02 0 01.864 2.482c0 .897-.299 1.754-.864 2.482a.468.468 0 01-.738-.574 3.09 3.09 0 00.666-1.908c0-.686-.23-1.346-.666-1.908A.467.467 0 010 0" fill="#fff" fill-rule="nonzero"/>
          </g>
        </g>
      </g>
    </g>
    <g id="g7214" transform="matrix(1 0 0 -1 73.996 59.185)">
      <g id="g7212">
        <g id="g7210">
          <g id="g8754">
            <path id="path8756" d="M0 0h3.969v2.412H0V0z" fill="#fff" fill-rule="nonzero"/>
          </g>
        </g>
      </g>
    </g>
    <g id="g7238" transform="matrix(1 0 0 -1 66.796 59.185)">
      <g id="g7236">
        <g id="g7234">
          <g id="g8766">
            <path id="path8768" d="M0 0h3.968v2.412H0V0z" fill="#fff" fill-rule="nonzero"/>
          </g>
        </g>
      </g>
    </g>
    <g id="g7246" transform="matrix(1 0 0 -1 70.06 65.688)">
      <g id="g7244">
        <g id="g7242">
          <g id="g8770">
            <path id="path8772" d="M0 0l.44.407c.11.099.204.195.28.289a1.31 1.31 0 01.292.599c.022.108.033.225.033.35 0 .34-.096.603-.286.786-.191.183-.484.275-.88.275-.418 0-.724-.097-.919-.291-.194-.195-.291-.474-.291-.836V1.43h.759c0 .103.005.2.013.292.01.091.03.172.061.241.031.07.075.125.132.165a.394.394 0 00.234.061c.257 0 .385-.161.385-.484 0-.099-.005-.187-.014-.264a.734.734 0 00-.058-.214.92.92 0 00-.123-.199A1.834 1.834 0 00-.154.814L-.473.517A4.14 4.14 0 01-.85.124a2.337 2.337 0 01-.27-.399 1.814 1.814 0 01-.159-.429 2.131 2.131 0 01-.052-.484h2.398v.616H-.402c.019.073.061.16.127.261S-.118-.106 0 0" fill="#fff" fill-rule="nonzero"/>
          </g>
        </g>
      </g>
    </g>
    <g id="g7254" transform="matrix(1 0 0 -1 75.673 66.876)">
      <g id="g7252">
        <g id="g7250">
          <g id="g8774">
            <path id="path8776" d="M0 0v3.894h-.583c-.041-.22-.137-.379-.289-.478-.152-.1-.36-.149-.624-.149h-.071V2.75h.775V0H0z" fill="#fff" fill-rule="nonzero"/>
          </g>
        </g>
      </g>
    </g>
    <g id="g7270" transform="matrix(1 0 0 -1 90.902 64.835)">
      <g id="g7268">
        <g id="g7266">
          <g id="g8782">
            <path id="path8784" d="M0 0c-.066-.114-.178-.17-.336-.17-.154 0-.264.056-.33.17-.065.114-.099.302-.099.566 0 .11.005.212.014.306a.824.824 0 00.058.245.36.36 0 00.129.162.403.403 0 00.228.057.394.394 0 00.223-.057.395.395 0 00.132-.16.812.812 0 00.063-.244C.093.779.099.676.099.566.099.302.065.114 0 0m.756-1.458c.083.198.132.427.148.685.017.259.026.527.026.806C.93.271.916.5.891.721a1.696 1.696 0 01-.168.58c-.086.166-.21.301-.371.401-.162.101-.378.152-.649.152-.44 0-.761-.12-.96-.358-.2-.238-.3-.583-.3-1.034 0-.176.018-.338.052-.487.035-.148.09-.277.165-.385a.78.78 0 01.295-.253.983.983 0 01.44-.09c.175 0 .325.03.448.09a.702.702 0 01.283.24h.012V-.61c0-.143-.006-.276-.017-.396a1.167 1.167 0 00-.069-.314.476.476 0 00-.146-.206.391.391 0 00-.253-.075c-.132 0-.224.042-.278.124a.635.635 0 00-.079.344h-.759c.003-.187.035-.344.096-.471a.805.805 0 01.583-.456c.13-.027.264-.041.404-.041.319 0 .567.058.745.173.178.116.309.272.391.47" fill="#fff" fill-rule="nonzero"/>
          </g>
        </g>
      </g>
    </g>
    <g id="g7278" transform="matrix(1 0 0 -1 66.711 63.609)">
      <g id="g7276">
        <g id="g7274">
          <g id="g8786">
            <path id="path8788" d="M0 0v-.517h.775v-2.75h.792V.627H.984C.944.407.848.248.696.148.543.049.335 0 .071 0H0z" fill="#fff" fill-rule="nonzero"/>
          </g>
        </g>
      </g>
    </g>
    <g id="g7302" transform="matrix(1 0 0 -1 77.759 66.876)">
      <g id="g7300">
        <g id="g7298">
          <g id="g8798">
            <path id="path8800" d="M0 0v3.894h-.583c-.041-.22-.137-.379-.289-.478-.152-.1-.36-.149-.624-.149h-.071V2.75h.775V0H0z" fill="#fff" fill-rule="nonzero"/>
          </g>
        </g>
      </g>
    </g>
    <g id="g7318" transform="matrix(1 0 0 -1 61.123 98.556)">
      <g id="g7316">
        <g id="g7314">
          <g id="g8806">
            <path id="path8808" d="M0 0v-2.32h.468v1.03h.546v-1.03h.468V0h-.468v-.887H.468V0H0z" fill="#fff" fill-rule="nonzero"/>
          </g>
        </g>
      </g>
    </g>
    <g id="g7326" transform="matrix(1 0 0 -1 58.784 97.52)">
      <g id="g7324">
        <g id="g7322">
          <g id="g8810">
            <path id="path8812" d="M0 0l.771-3.356h.869L2.411 0h-.7l-.499-2.482h-.014L.724 0H0z" fill="#fff" fill-rule="nonzero"/>
          </g>
        </g>
      </g>
    </g>
    <g id="g7334" transform="matrix(1 0 0 -1 57.103 65.77)">
      <g id="g7332">
        <g id="g7330">
          <g id="g8814">
            <path id="path8816" d="M0 0a.662.662 0 00-.395-.108h-.263v1.01h.291A.841.841 0 00-.16.879.39.39 0 00.11.642.633.633 0 00.15.399C.15.205.1.072 0 0m-.658 2.251h.244c.169 0 .293-.033.372-.099.078-.066.117-.178.117-.338 0-.16-.043-.273-.129-.341-.086-.067-.223-.101-.411-.101h-.193v.879zM.627-.312A.763.763 0 01.804 0c.034.119.051.244.051.376C.855.602.8.782.691.917a.667.667 0 01-.447.239v.01a.63.63 0 01.381.265c.084.13.127.286.127.467 0 .161-.023.295-.07.405a.655.655 0 01-.198.263.785.785 0 01-.303.141 1.651 1.651 0 01-.383.043h-1.133V-.606h1.142c.198 0 .363.026.496.08a.87.87 0 01.324.214" fill="#fff" fill-rule="nonzero"/>
          </g>
        </g>
      </g>
    </g>
    <g id="g7342" transform="matrix(1 0 0 -1 53.219 65.89)">
      <g id="g7340">
        <g id="g7338">
          <g id="g8818">
            <path id="path8820" d="M0 0c.06.14.089.316.089.529V2.87h-.676V.529c0-.085-.006-.162-.017-.233A.526.526 0 00-.665.113a.334.334 0 00-.12-.122.38.38 0 00-.197-.045.383.383 0 00-.195.045.318.318 0 00-.122.122.507.507 0 00-.062.183 1.523 1.523 0 00-.016.233V2.87h-.677V.529c0-.226.03-.409.09-.55a.783.783 0 01.239-.327.808.808 0 01.343-.152c.129-.025.262-.038.4-.038s.271.014.399.042a.812.812 0 01.343.165c.1.081.18.192.24.331" fill="#fff" fill-rule="nonzero"/>
          </g>
        </g>
      </g>
    </g>
    <g id="g7350" transform="matrix(1 0 0 -1 57.302 98.939)">
      <g id="g7348">
        <g id="g7346">
          <g id="g8822">
            <path id="path8824" d="M0 0v.383h-1.297v-2.32h.468V-.93h.78v.384h-.78V0H0z" fill="#fff" fill-rule="nonzero"/>
          </g>
        </g>
      </g>
    </g>
    <g id="g7358" transform="matrix(1 0 0 -1 51.254 99.611)">
      <g id="g7356">
        <g id="g7354">
          <g id="g8826">
            <path id="path8828" d="M0 0l.324 1.509h.01L.658 0H0zm-.089 2.092l-.889-3.357h.706l.154.71h.893l.156-.71h.705L.748 2.092h-.837z" fill="#fff" fill-rule="nonzero"/>
          </g>
        </g>
      </g>
    </g>
    <g id="g7366" transform="matrix(1 0 0 -1 68.039 97.63)">
      <g id="g7364">
        <g id="g7362">
          <g id="g8830">
            <path id="path8832" d="M0 0h.011l.38-1.766h-.77L0 0zm-.698-3.245l.181.831H.528l.181-.831h.826L.495.682h-.979l-1.039-3.927h.825z" fill="#fff" fill-rule="nonzero"/>
          </g>
        </g>
      </g>
    </g>
    <g id="g7374" transform="matrix(1 0 0 -1 55.91 100.492)">
      <g id="g7372">
        <g id="g7370">
          <g id="g8834">
            <path id="path8836" d="M0 0h-.861v.624h.78v.384h-.78v.546h.829v.383h-1.297V-.384H0V0z" fill="#fff" fill-rule="nonzero"/>
          </g>
        </g>
      </g>
    </g>
    <g id="g7382" transform="matrix(1 0 0 -1 53.388 98.9)">
      <g id="g7380">
        <g id="g7378">
          <g id="g8838">
            <path id="path8840" d="M0 0h.221c.217 0 .325-.107.325-.322 0-.125-.03-.215-.091-.268-.06-.054-.147-.08-.26-.08H0V0zm0-.995h.25c.098 0 .167-.026.208-.078a.364.364 0 00.069-.214l.013-.445c.002-.046.006-.09.013-.132a.254.254 0 01.045-.113h.507v.02c-.043.024-.071.068-.084.134a2.84 2.84 0 00-.02.282l-.006.171a2.597 2.597 0 01-.01.141c-.013.13-.047.224-.101.283a.431.431 0 01-.257.114v.006a.44.44 0 01.293.19.7.7 0 01.094.382c0 .201-.054.352-.162.45C.743.295.592.344.396.344h-.864v-2.321H0v.982z" fill="#fff" fill-rule="nonzero"/>
          </g>
        </g>
      </g>
    </g>
    <g id="g7390" transform="matrix(1 0 0 -1 54.477 66.428)">
      <g id="g7388">
        <g id="g7386">
          <g id="g8842">
            <path id="path8844" d="M0 0c.367 0 .652.081.857.242.206.161.309.419.309.773 0 .104-.01.198-.029.282a.638.638 0 01-.101.233.847.847 0 01-.195.198 1.558 1.558 0 01-.315.175l-.522.226c-.144.059-.237.125-.281.195a.484.484 0 00-.066.261c0 .05.005.099.016.146a.307.307 0 00.061.124c.03.036.07.065.12.087a.47.47 0 00.188.033c.132 0 .226-.043.282-.129a.676.676 0 00.085-.369h.649v.094c0 .16-.026.297-.078.411a.752.752 0 01-.216.282.871.871 0 01-.329.16 1.654 1.654 0 01-.416.049c-.323 0-.577-.081-.762-.244-.185-.163-.277-.411-.277-.743 0-.137.017-.259.052-.364a.737.737 0 01.162-.277c.074-.08.165-.15.275-.209.11-.06.239-.115.39-.165.113-.037.207-.075.284-.11a.711.711 0 00.186-.12.388.388 0 00.101-.148.57.57 0 00.03-.195C.46.757.419.652.336.585a.434.434 0 00-.28-.101.553.553 0 00-.218.038.343.343 0 00-.139.103.387.387 0 00-.071.162 1.179 1.179 0 00-.018.214V1.1h-.677V.963c0-.31.082-.548.247-.714C-.656.083-.382 0 0 0" fill="#fff" fill-rule="nonzero"/>
          </g>
        </g>
      </g>
    </g>
    <g id="g7398" transform="matrix(1 0 0 -1 63.524 65.78)">
      <g id="g7396">
        <g id="g7394">
          <g id="g8846">
            <path id="path8848" d="M0 0c.028.119.042.235.042.348 0 .21-.044.384-.134.524-.089.139-.241.227-.458.261v.009c.16.035.284.115.374.242a.838.838 0 01.134.491c0 .295-.084.511-.251.649-.168.138-.404.207-.708.207-.32 0-.562-.081-.728-.242-.167-.161-.25-.408-.25-.74h.621c0 .078.004.15.011.216a.498.498 0 00.05.171c.025.049.06.087.106.113a.34.34 0 00.176.04c.11 0 .191-.033.244-.099.054-.065.08-.178.08-.338a.895.895 0 00-.021-.197.53.53 0 00-.066-.167.35.35 0 00-.118-.118.334.334 0 00-.18-.044h-.221V.884h.226A.467.467 0 00-.846.837.35.35 0 00-.714.71.525.525 0 00-.651.529C-.64.461-.634.39-.634.315A1.72 1.72 0 00-.646.108a.458.458 0 00-.052-.171.29.29 0 00-.113-.115.376.376 0 00-.195-.043c-.147 0-.245.051-.293.153-.049.102-.075.25-.078.444h-.648V.362c0-.322.079-.572.239-.747.16-.176.401-.263.724-.263.232 0 .419.029.562.089a.854.854 0 01.335.235A.77.77 0 010 0" fill="#fff" fill-rule="nonzero"/>
          </g>
        </g>
      </g>
    </g>
    <g id="g7406" transform="matrix(1 0 0 -1 66.232 101.01)">
      <g id="g7404">
        <g id="g7402">
          <g id="g8850">
            <path id="path8852" d="M0 0a.468.468 0 01-.656-.082 4.022 4.022 0 01-.864-2.481c0-.897.299-1.754.864-2.483a.469.469 0 01.739.574 3.089 3.089 0 00-.667 1.909c0 .685.23 1.345.667 1.907A.468.468 0 010 0" fill="#fff" fill-rule="nonzero"/>
          </g>
        </g>
      </g>
    </g>
    <g id="g7414" transform="matrix(1 0 0 -1 63.565 56.773)">
      <g id="g7412">
        <g id="g7410">
          <g id="g8854">
            <path id="path8856" d="M0 0h-3.969v-2.412H0V0z" fill="#fff" fill-rule="nonzero"/>
          </g>
        </g>
      </g>
    </g>
    <g id="g7430" transform="matrix(1 0 0 -1 60.457 63.457)">
      <g id="g7428">
        <g id="g7426">
          <g id="g8862">
            <path id="path8864" d="M0 0c-.13-.084-.308-.126-.533-.126h-.061v-.442h.662v-2.35h.677V.409H.247C.212.221.13.085 0 0" fill="#fff" fill-rule="nonzero"/>
          </g>
        </g>
      </g>
    </g>
    <path fill="#fff" fill-rule="nonzero" d="M26.417 6.298h.468v2.32h-.468z" transform="matrix(1 0 0 -1 36.38 107.174)" id="path8866"/>
    <g id="g7439" transform="matrix(1 0 0 -1 48.81 99.84)">
      <g id="g7437">
        <g id="g7435">
          <g id="g8868">
            <path id="path8870" d="M0 0c0 .227-.029.41-.087.55a.869.869 0 01-.23.329.772.772 0 01-.318.16c-.116.028-.23.042-.341.042A.934.934 0 01-1.488.95C-1.625.862-1.71.713-1.744.501h-.009a.584.584 0 01-.237.366.818.818 0 01-.48.131c-.289 0-.5-.082-.635-.246C-3.24.588-3.308.357-3.308.06c0-.313.079-.551.237-.713.158-.163.4-.244.725-.244v.607c-.077 0-.147.004-.212.012a.472.472 0 00-.168.048.267.267 0 00-.11.103.343.343 0 00-.039.173c0 .107.032.186.096.239.065.052.175.078.332.078a.928.928 0 00.193-.02.515.515 0 00.163-.065.333.333 0 00.115-.115.334.334 0 00.044-.177V-.23h.432v.22c0 .093.016.166.046.222A.332.332 0 00-1.33.34a.496.496 0 00.178.062 1.642 1.642 0 00.411.005.448.448 0 00.168-.051.291.291 0 00.113-.11.387.387 0 00.041-.191c0-.144-.05-.24-.149-.287a1.076 1.076 0 00-.435-.077v-.634h.014c.316 0 .559.078.731.234C-.086-.552 0-.316 0 0" fill="#fff" fill-rule="nonzero"/>
          </g>
        </g>
      </g>
    </g>
  </g>
  <circle id="connector82pin" cx="12.804" cy="12.753" r="6.432" fill="none" stroke="#9a916c" stroke-width="3.25" stroke-linecap="butt"/>
  <circle id="connector83pin" cx="37.22" cy="12.753" r="6.432" fill="none" stroke="#9a916c" stroke-width="3.25" stroke-linecap="butt"/>
  <circle id="connector84pin" cx="61.635" cy="12.753" r="6.432" fill="none" stroke="#9a916c" stroke-width="3.25" stroke-linecap="butt"/>
  <circle id="connector85pin" cx="86.051" cy="12.753" r="6.432" fill="none" stroke="#9a916c" stroke-width="3.25" stroke-linecap="butt"/>
  <circle id="connector86pin" cx="110.467" cy="12.753" r="6.432" fill="none" stroke="#9a916c" stroke-width="3.25" stroke-linecap="butt"/>
  <circle id="connector87pin" cx="134.883" cy="12.753" r="6.432" fill="none" stroke="#9a916c" stroke-width="3.25" stroke-linecap="butt"/>
  <circle id="connector88pin" cx="159.299" cy="12.753" r="6.432" fill="none" stroke="#9a916c" stroke-width="3.25" stroke-linecap="butt"/>
  <circle id="connector89pin" cx="183.715" cy="12.753" r="6.432" fill="none" stroke="#9a916c" stroke-width="3.25" stroke-linecap="butt"/>
  <circle id="connector90pin" cx="208.131" cy="12.753" r="6.432" fill="none" stroke="#9a916c" stroke-width="3.25" stroke-linecap="butt"/>
  <circle id="connector91pin" cx="232.547" cy="12.753" r="6.432" fill="none" stroke="#9a916c" stroke-width="3.25" stroke-linecap="butt"/>
  <circle id="connector92pin" cx="256.962" cy="12.753" r="6.432" fill="none" stroke="#9a916c" stroke-width="3.25" stroke-linecap="butt"/>
  <circle id="connector93pin" cx="281.378" cy="12.753" r="6.432" fill="none" stroke="#9a916c" stroke-width="3.25" stroke-linecap="butt"/>
  <circle id="connector94pin" cx="305.794" cy="12.753" r="6.432" fill="none" stroke="#9a916c" stroke-width="3.25" stroke-linecap="butt"/>
  <circle id="connector95pin" cx="330.21" cy="12.753" r="6.432" fill="none" stroke="#9a916c" stroke-width="3.25" stroke-linecap="butt"/>
  <circle id="connector96pin" cx="330.21" cy="159.248" r="6.432" fill="none" stroke="#9a916c" stroke-width="3.25" stroke-linecap="butt"/>
  <circle id="connector97pin" cx="305.794" cy="159.248" r="6.432" fill="none" stroke="#9a916c" stroke-width="3.25" stroke-linecap="butt"/>
  <circle id="connector98pin" cx="281.378" cy="159.248" r="6.432" fill="none" stroke="#9a916c" stroke-width="3.25" stroke-linecap="butt"/>
  <circle id="connector99pin" cx="256.962" cy="159.248" r="6.432" fill="none" stroke="#9a916c" stroke-width="3.25" stroke-linecap="butt"/>
  <circle id="connector100pin" cx="232.547" cy="159.248" r="6.432" fill="none" stroke="#9a916c" stroke-width="3.25" stroke-linecap="butt"/>
  <circle id="connector101pin" cx="208.131" cy="159.248" r="6.432" fill="none" stroke="#9a916c" stroke-width="3.25" stroke-linecap="butt"/>
  <circle id="connector102pin" cx="183.715" cy="159.248" r="6.432" fill="none" stroke="#9a916c" stroke-width="3.25" stroke-linecap="butt"/>
  <circle id="connector103pin" cx="159.299" cy="159.248" r="6.432" fill="none" stroke="#9a916c" stroke-width="3.25" stroke-linecap="butt"/>
  <circle id="connector104pin" cx="134.883" cy="159.248" r="6.432" fill="none" stroke="#9a916c" stroke-width="3.25" stroke-linecap="butt"/>
  <circle id="connector105pin" cx="110.467" cy="159.248" r="6.432" fill="none" stroke="#9a916c" stroke-width="3.25" stroke-linecap="butt"/>
  <circle id="connector106pin" cx="86.051" cy="159.248" r="6.432" fill="none" stroke="#9a916c" stroke-width="3.25" stroke-linecap="butt"/>
  <circle id="connector107pin" cx="61.635" cy="159.248" r="6.432" fill="none" stroke="#9a916c" stroke-width="3.25" stroke-linecap="butt"/>
  <circle id="connector108pin" cx="37.22" cy="159.248" r="6.432" fill="none" stroke="#9a916c" stroke-width="3.25" stroke-linecap="butt"/>
  <circle id="connector109pin" cx="12.804" cy="159.248" r="6.432" fill="none" stroke="#9a916c" stroke-width="3.25" stroke-linecap="butt"/>
  <g transform="rotate(90 191.817 -29.852) scale(3.3911)">
    <g id="g7500">
      <g id="g7498">
        <g id="g7496">
          <g id="g5715">
            <path id="connector110pin" fill="#9a916c" d="M89.549 9.223h2.268v2.268h-2.268z"/>
          </g>
        </g>
      </g>
    </g>
  </g>
  <g transform="rotate(90 206.236 -15.433) scale(3.3911)">
    <g id="g7508">
      <g id="g7506">
        <g id="g7504">
          <g id="g5718">
            <path id="connector111pin" fill="#9a916c" d="M89.549 13.475h2.268v2.268h-2.268z"/>
          </g>
        </g>
      </g>
    </g>
  </g>
  <g id="g7656" transform="rotate(90 23.42 139.929) scale(3.3911)">
    <g id="g7654">
      <g id="g7652">
        <g id="g5776">
          <path id="connector133pin" d="M8.961 40.741a.418.418 0 00-.418-.418H6.544a.418.418 0 00-.418.418v1.998c0 .231.188.418.418.418h1.999a.418.418 0 00.418-.418v-1.998z" fill="#9a916c"/>
        </g>
      </g>
    </g>
  </g>
  <path id="connector147pin" fill="#9a916c" d="M14.486 73.985h19.225v9.613H14.486z"/>
  <path id="connector148pin" fill="#9a916c" d="M14.486 88.404h19.225v9.613H14.486z"/>
  <g id="g7714" transform="rotate(90 52.39 83.84) scale(3.3911)">
    <g id="g7712">
      <g id="g7710">
        <g id="g5804">
          <path id="connector149pin" fill="#9a916c" d="M15.52 23.287h1.134v3.827H15.52z"/>
        </g>
      </g>
    </g>
  </g>
  <g id="g7722" transform="rotate(90 52.39 77.59) scale(3.3911)">
    <g id="g7720">
      <g id="g7718">
        <g id="g5807">
          <path id="connector150pin" fill="#9a916c" d="M15.52 21.444h1.134v3.827H15.52z"/>
        </g>
      </g>
    </g>
  </g>
  <g id="g7730" transform="rotate(90 52.39 96.335) scale(3.3911)">
    <g id="g7728">
      <g id="g7726">
        <g id="g5810">
          <path id="connector151pin" fill="#9a916c" d="M15.52 26.972h1.134v3.827H15.52z"/>
        </g>
      </g>
    </g>
  </g>
  <g id="g7738" transform="rotate(90 52.39 90.087) scale(3.3911)">
    <g id="g7736">
      <g id="g7734">
        <g id="g5813">
          <path id="connector152pin" fill="#9a916c" d="M15.52 25.129h1.134v3.827H15.52z"/>
        </g>
      </g>
    </g>
  </g>
  <circle id="connector153pin" cx="51.975" cy="54.279" r="5.066" fill="none" stroke="#9a916c" stroke-width="2.44" stroke-linecap="butt"/>
  <path id="path5816" d="M46.909 44.147h10.132v15.198H46.909V44.147m0 10.132c0 2.779 2.287 5.066 5.066 5.066s5.066-2.287 5.066-5.066-2.287-5.066-5.066-5.066-5.066 2.287-5.066 5.066z" fill="#9a916c" fill-rule="nonzero"/>
  <circle id="connector154pin" cx="51.975" cy="117.722" r="5.066" fill="none" stroke="#9a916c" stroke-width="2.44" stroke-linecap="butt"/>
  <path id="path5819" d="M46.909 112.656h10.132v15.198H46.909v-15.198m0 5.066c0 2.779 2.287 5.065 5.066 5.065s5.066-2.286 5.066-5.065c0-2.779-2.287-5.066-5.066-5.066s-5.066 2.287-5.066 5.066z" fill="#9a916c" fill-rule="nonzero"/>
  <circle id="connector155pin" cx="25.06" cy="51.395" r="7.962" fill="none" stroke="#9a916c" stroke-width="7.27" stroke-linecap="butt"/>
  <path id="rect5822" fill="none" stroke="#9a916c" stroke-width="7.27" stroke-linecap="butt" d="M17.098 43.433h15.923v15.923H17.098z"/>
  <circle id="connector156pin" cx="25.06" cy="120.605" r="7.962" fill="none" stroke="#9a916c" stroke-width="7.27" stroke-linecap="butt"/>
  <path id="rect5825" fill="none" stroke="#9a916c" stroke-width="7.27" stroke-linecap="butt" d="M17.098 112.644h15.923v15.923H17.098z"/>
  <g id="g7754" transform="rotate(90 52.39 71.343) scale(3.3911)">
    <g id="g7752">
      <g id="g7750">
        <g id="g5828">
          <path id="connector157pin" fill="#9a916c" d="M15.52 19.602h1.134v3.827H15.52z"/>
        </g>
      </g>
    </g>
  </g>
  <path d="M299.893 49.58V36.168c0-.543.44-.984.983-.984h5.724c.543 0 .984.441.984.984V49.58a.984.984 0 01-.984.983h-5.721a.984.984 0 01-.986-.983z" fill="#dcdcdc" fill-rule="nonzero" transform="rotate(-90 240.383 149.202)" id="path5922"/>
  <path d="M299.893 49.58V36.168c0-.543.44-.984.983-.984h5.724c.543 0 .984.441.984.984V49.58a.984.984 0 01-.984.983h-5.721a.984.984 0 01-.986-.983z" fill="#dcdcdc" fill-rule="nonzero" transform="matrix(0 -11.1819 7.15279 0 -46.666 3480.36)" id="path59221"/>
  <g transform="translate(130.209 78.156) scale(3.3911)">
    <g id="LED">
      <g id="g7923">
        <g id="g7921">
          <path id="rect5924" fill="red" d="M0 1.134h2.268v2.268H0z"/>
        </g>
      </g>
    </g>
  </g>
  <g id="g8036">
    <g transform="translate(71 45) scale(3.3911)">
      <g id="g8034">
        <g id="g8032">
          <g id="kmr2">
            <g id="g8029">
              <g id="g8027">
                <g id="g8025">
                  <g id="g5985">
                    <g id="g5983">
                      <path id="polygon5975" d="M0 7.228h1.417v1.276h9.922V7.228h1.417V5.811h-1.417V2.692h1.417V1.275h-1.417V0H1.417v1.275H0v1.417h1.417v3.119H0v1.417z" fill="#dcdcdc" fill-rule="nonzero"/>
                      <circle id="circle5977" cx="6.378" cy="4.252" r="2.48" fill="#1e1e1e"/>
                      <path id="rect5979" fill="#b4b4b4" d="M.992 0h.567v8.504H.992z"/>
                      <path id="rect5981" fill="#b4b4b4" d="M11.197 0h.567v8.504h-.567z"/>
                    </g>
                  </g>
                </g>
              </g>
            </g>
          </g>
        </g>
      </g>
    </g>
    <g transform="translate(71 98) scale(3.3911)">
      <g id="g80341">
        <g id="g80321">
          <g id="kmr21">
            <g id="g80291">
              <g id="g80271">
                <g id="g80251">
                  <g id="g59851">
                    <g id="g59831">
                      <path id="polygon59751" d="M0 7.228h1.417v1.276h9.922V7.228h1.417V5.811h-1.417V2.692h1.417V1.275h-1.417V0H1.417v1.275H0v1.417h1.417v3.119H0v1.417z" fill="#dcdcdc" fill-rule="nonzero"/>
                      <circle id="circle59771" cx="6.378" cy="4.252" r="2.48" fill="#1e1e1e"/>
                      <path id="rect59791" fill="#b4b4b4" d="M.992 0h.567v8.504H.992z"/>
                      <path id="rect59811" fill="#b4b4b4" d="M11.197 0h.567v8.504h-.567z"/>
                    </g>
                  </g>
                </g>
              </g>
            </g>
          </g>
        </g>
      </g>
    </g>
  </g>
  <g transform="rotate(90 4.712 52.263) scale(3.3911)">
    <g id="g8099">
      <g id="g8097">
        <g id="g8095">
          <g id="_4uconn_20329_v2">
            <g id="g8092">
              <g id="g8090">
                <g id="g8088">
                  <g id="g6037">
                    <g id="g6035">
                      <path id="rect6007" fill="#b4b4b4" d="M0 7.157h22.677v3.969H0z"/>
                      <path id="rect6009" fill="#dcdcdc" d="M11.055 0h.567v3.402h-.567z"/>
                      <path id="rect6011" fill="#dcdcdc" d="M12.898 0h.567v3.402h-.567z"/>
                      <path id="rect6013" fill="#dcdcdc" d="M14.74 0h.567v3.402h-.567z"/>
                      <path id="rect6015" fill="#dcdcdc" d="M9.213 0h.567v3.402h-.567z"/>
                      <path id="rect6017" fill="#dcdcdc" d="M7.37 0h.567v3.402H7.37z"/>
                      <path id="rect6019" fill="#b4b4b4" d="M4.252 1.489h14.173v.709H4.252z"/>
                      <path id="rect6021" d="M4.252 1.771h14.173v2.976H4.252z"/>
                      <path id="polygon6023" d="M5.669 1.347H.567v13.606H22.11V1.347h-5.102v2.126H14.74v.709h-1.417V1.63H9.354v2.552H7.937v-.709H5.669V1.347z" fill="#dcdcdc" fill-rule="nonzero"/>
                      <path id="polygon6025" d="M5.527 7.867l.284 4.252H3.827l.283-4.252h1.417z" fill-rule="nonzero"/>
                      <path id="polygon6027" d="M18.567 7.867l.283 4.252h-1.984l.283-4.252h1.418z" fill-rule="nonzero"/>
                      <path id="polygon6029" d="M21.543 14.953l-.567 1.701-19.275-.001-.567-1.7h20.409z" fill="#f0f0f0" fill-rule="nonzero"/>
                      <path id="polygon6031" d="M1.134 14.953l-.567 1.7H0l.567-1.7h.567z" fill="#b4b4b4" fill-rule="nonzero"/>
                      <path id="polygon6033" d="M22.11 14.953l.567 1.701h-.567l-.567-1.701h.567z" fill="#b4b4b4" fill-rule="nonzero"/>
                    </g>
                  </g>
                </g>
              </g>
            </g>
          </g>
        </g>
      </g>
    </g>
  </g>
</svg>
